<svg width="43" height="31" viewBox="0 0 43 31" fill="none" xmlns="http://www.w3.org/2000/svg">
<path d="M1.4447 22.0281V22.6925C1.44623 24.3176 2.09284 25.8757 3.2425 27.0243C4.39215 28.1729 5.95085 28.818 7.57594 28.818H35.3136C36.9387 28.818 38.4973 28.1729 39.6469 27.0243C40.7966 25.8757 41.4432 24.3176 41.4447 22.6925V7.57558C41.4447 6.77042 41.2861 5.97313 40.978 5.22926C40.6699 4.48539 40.2182 3.80949 39.6489 3.24016C39.0795 2.67082 38.4036 2.21915 37.6598 1.91103C36.9159 1.60291 36.1188 1.44434 35.3136 1.44434H7.57594C6.77078 1.44434 5.97349 1.60291 5.22962 1.91103C4.48576 2.21915 3.80986 2.67082 3.24052 3.24016C2.67119 3.80949 2.21952 4.48539 1.9114 5.22926C1.60328 5.97313 1.4447 6.77042 1.4447 7.57558V21.9529M1.45626 8.0494H41.4274M7.06736 15.4634H10.3843M7.06736 21.2017H15.0882M25.536 21.2017H28.8241M32.9501 21.2017H36.2381" stroke="#E37474" stroke-width="2.88934" stroke-linecap="round" stroke-linejoin="round"/>
</svg>
